HIERARCHY
ROOT Hips
{
    OFFSET 0.000000 0.000000 0.000000
    CHANNELS 6 Xposition Yposition Zposition Zrotation Xrotation Yrotation
    JOINT Spine
    {
        OFFSET -0.000000 14.517291 0.000000
        CHANNELS 3 Zrotation Xrotation Yrotation
        JOINT Spine1
        {
            OFFSET -0.000000 37.558300 0.000000
            CHANNELS 3 Zrotation Xrotation Yrotation
            JOINT Neck
            {
                OFFSET -0.000000 37.404057 3.400369
                CHANNELS 3 Zrotation Xrotation Yrotation
                JOINT Head
                {
                    OFFSET -0.000000 24.785618 -3.540803
                    CHANNELS 3 Zrotation Xrotation Yrotation
                    End Site
                    {
                        OFFSET -0.000000 35.408028 0.000000
                    }
                }
            }
            JOINT LeftShoulder
            {
                OFFSET 6.992933 33.973492 -0.192664
                CHANNELS 3 Zrotation Xrotation Yrotation
                JOINT LeftArm
                {
                    OFFSET 21.527611 0.000000 0.000000
                    CHANNELS 3 Zrotation Xrotation Yrotation
                    JOINT LeftForeArm
                    {
                        OFFSET 56.353916 0.000000 0.000000
                        CHANNELS 3 Zrotation Xrotation Yrotation
                        JOINT LeftHand
                        {
                            OFFSET 47.774071 0.000000 0.000000
                            CHANNELS 3 Zrotation Xrotation Yrotation
                            End Site
                            {
                                OFFSET 26.556021 0.000000 0.000000
                            }
                        }
                    }
                }
            }
            JOINT RightShoulder
            {
                OFFSET -7.065357 33.973492 -0.192664
                CHANNELS 3 Zrotation Xrotation Yrotation
                JOINT RightArm
                {
                    OFFSET -21.527611 0.000000 0.000000
                    CHANNELS 3 Zrotation Xrotation Yrotation
                    JOINT RightForeArm
                    {
                        OFFSET -56.353916 0.000000 0.000000
                        CHANNELS 3 Zrotation Xrotation Yrotation
                        JOINT RightHand
                        {
                            OFFSET -47.774071 0.000000 0.000000
                            CHANNELS 3 Zrotation Xrotation Yrotation
                            End Site
                            {
                                OFFSET -26.556021 0.000000 0.000000
                            }
                        }
                    }
                }
            }
        }
    }
    JOINT LeftUpLeg
    {
        OFFSET 17.704014 0.000000 0.000000
        CHANNELS 3 Zrotation Xrotation Yrotation
        JOINT LeftLeg
        {
            OFFSET -0.000000 -81.181816 0.000000
            CHANNELS 3 Zrotation Xrotation Yrotation
            JOINT LeftFoot
            {
                OFFSET -0.000000 -62.821102 0.000000
                CHANNELS 3 Zrotation Xrotation Yrotation
                JOINT LeftToeBase
                {
                    OFFSET -0.000000 -11.507608 26.556021
                    CHANNELS 3 Zrotation Xrotation Yrotation
                    End Site
                    {
                        OFFSET -0.000000 0.000000 7.081605
                    }
                }
            }
        }
    }
    JOINT RightUpLeg
    {
        OFFSET -17.704014 0.000000 0.000000
        CHANNELS 3 Zrotation Xrotation Yrotation
        JOINT RightLeg
        {
            OFFSET -0.000000 -81.181816 0.000000
            CHANNELS 3 Zrotation Xrotation Yrotation
            JOINT RightFoot
            {
                OFFSET -0.000000 -62.821102 0.000000
                CHANNELS 3 Zrotation Xrotation Yrotation
                JOINT RightToeBase
                {
                    OFFSET -0.000000 -11.507608 26.556021
                    CHANNELS 3 Zrotation Xrotation Yrotation
                    End Site
                    {
                        OFFSET -0.000000 0.000000 7.081605
                    }
                }
            }
        }
    }
}
MOTION
Frames:    6
Frame Time:    0.008333
-11.384990    157.791306    -92.499176    -1.954606    -6.498735    49.542191    -0.785308    -3.471074    0.505785    -7.702705    1.678291    0.285585    3.762918    7.738795    -21.622416    17.544487    -1.492407    -20.218424    8.003354    3.159517    -18.186081    -31.488005    12.383319    -66.894585    -7.706211    -21.219395    -99.213959    -10.914444    -27.888241    -18.177618    -15.932355    -6.005132    -4.209181    12.886151    -25.898211    48.503143    -6.472854    -1.045183    14.311795    -7.787189    -2.717378    35.364498    23.419987    0.919548    -4.769019    -9.632118    22.917440    -20.343946    -3.810405    -23.541025    41.340378    0.000000    0.000000    0.000000    -11.200217    -12.852895    -22.688076    5.077888    16.212831    -18.359566    6.454751    9.128736    -10.857233    0.000000    0.000000    0.000000    
-11.391233    157.804550    -92.493843    -1.965733    -6.488742    49.547668    -0.801776    -3.468980    0.499509    -7.668825    1.657782    0.281960    3.778430    7.731207    -21.608299    17.512659    -1.501493    -20.208361    8.021353    3.177144    -18.164753    -31.410330    12.631040    -66.552902    -7.930645    -20.460651    -98.241669    -10.706235    -27.298893    -18.107981    -15.930427    -5.998705    -4.202915    12.877633    -25.856054    48.500515    -6.476143    -1.053324    14.330424    -7.824319    -2.737145    35.380901    23.420067    0.920111    -4.776938    -9.620226    22.873259    -20.336792    -3.834203    -23.513720    41.335514    0.000000    0.000000    0.000000    -11.180058    -12.840739    -22.634928    5.079593    16.146175    -18.358974    6.452232    9.144450    -10.909423    0.000000    0.000000    0.000000    
-11.396043    157.818909    -92.488312    -1.978254    -6.483898    49.554455    -0.809115    -3.457166    0.495939    -7.642228    1.628289    0.278485    3.777227    7.707983    -21.601665    17.503883    -1.473191    -20.207682    8.033542    3.212226    -18.138130    -31.320663    12.856212    -66.241783    -8.120386    -19.636387    -97.278336    -9.582745    -26.767601    -17.666670    -15.923674    -5.992695    -4.209112    12.884803    -25.825306    48.513790    -6.474732    -1.048734    14.343889    -7.854429    -2.743748    35.408298    23.421471    0.930906    -4.768755    -9.599445    22.814047    -20.341284    -3.883068    -23.507139    41.335930    0.000000    0.000000    0.000000    -11.158773    -12.820547    -22.596617    5.085733    16.074978    -18.376307    6.441333    9.162090    -10.931015    0.000000    0.000000    0.000000    
-11.398916    157.833450    -92.481895    -1.997232    -6.472583    49.565464    -0.812023    -3.468491    0.484919    -7.620091    1.612613    0.273205    3.793396    7.681185    -21.583158    17.454338    -1.453975    -20.200647    8.038176    3.276236    -18.105497    -31.251112    13.020388    -65.917313    -8.464499    -18.729261    -96.383430    -9.160867    -26.193466    -17.559633    -15.920576    -5.983795    -4.196284    12.901482    -25.818420    48.524708    -6.466543    -1.007124    14.346149    -7.845336    -2.697940    35.378750    23.422665    0.934393    -4.774982    -9.583261    22.747318    -20.347328    -3.891634    -23.475567    41.345333    0.000000    0.000000    0.000000    -11.136367    -12.804901    -22.586437    5.080388    15.995912    -18.401091    6.439350    9.194363    -10.938140    0.000000    0.000000    0.000000    
-11.395291    157.850952    -92.476387    -2.006752    -6.463798    49.578495    -0.814529    -3.470023    0.486030    -7.606373    1.598180    0.272654    3.807122    7.660029    -21.584000    17.430849    -1.436035    -20.209572    8.039550    3.353592    -18.092890    -31.153568    13.174810    -65.585945    -8.977048    -17.800985    -95.589012    -8.872063    -25.757408    -17.465302    -15.913176    -5.974556    -4.211573    12.908073    -25.786913    48.539970    -6.475699    -0.968079    14.343278    -7.852613    -2.659054    35.364368    23.414394    0.948427    -4.775393    -9.562113    22.676989    -20.318398    -3.929781    -23.447155    41.317940    0.000000    0.000000    0.000000    -11.119578    -12.771825    -22.576582    5.075191    15.906461    -18.438274    6.431045    9.227068    -10.905931    0.000000    0.000000    0.000000    
-11.394654    157.865829    -92.468506    -2.018966    -6.450214    49.587482    -0.825765    -3.484196    0.487336    -7.581886    1.600511    0.272916    3.789585    7.651711    -21.583664    17.458889    -1.442382    -20.202969    8.029432    3.419985    -18.089014    -31.107307    13.259379    -65.257202    -9.482344    -16.778961    -94.770241    -7.997085    -25.301109    -17.256317    -15.906160    -5.966321    -4.224994    12.898990    -25.742579    48.548519    -6.492451    -0.984147    14.345633    -7.855057    -2.671731    35.336140    23.406305    0.960524    -4.761189    -9.531298    22.610575    -20.333626    -3.945737    -23.405613    41.303295    0.000000    0.000000    0.000000    -11.105295    -12.749360    -22.597790    5.063764    15.828619    -18.461311    6.427713    9.257857    -10.871498    0.000000    0.000000    0.000000    
